<svg xmlns="http://www.w3.org/2000/svg" viewBox="0 0 152.39 236.72"><defs><style>.cls-1{fill:#840202}.cls-2{fill:#fff}.cls-3{fill:none;stroke:#fff;stroke-miterlimit:10;stroke-width:1.48px}</style></defs><g id="Layer_2" data-name="Layer 2"><g id="back"><path d="M0 0h152.39v236.72H0z" class="cls-1"/><path d="M140.54 8.88H11.85a3 3 0 0 0-3 3v213a3 3 0 0 0 3 3h128.69a3 3 0 0 0 3-3v-213a3 3 0 0 0-3-3m1.52 216a1.53 1.53 0 0 1-1.52 1.54H11.85a1.54 1.54 0 0 1-1.53-1.54v-213a1.54 1.54 0 0 1 1.53-1.54h128.69a1.53 1.53 0 0 1 1.52 1.54z" class="cls-2"/><path d="M18.23 218.49V18.23h115.93v200.26zM130.68 215V21.71h-109V215z" class="cls-1"/><path d="M19.23 19.23v198.26h113.93V19.23zM131.68 216h-111V20.71h111zm6.06 6.48a1.07 1.07 0 0 0 .62-.32 1 1 0 0 0 .32-.62 1.53 1.53 0 0 0-.49-1.15 11.8 11.8 0 0 0-3.83-2.24 11.8 11.8 0 0 0 2.23 3.84 1.6 1.6 0 0 0 1.15.49m1.4-4.42c.46-.27 1-.52 1.23-1a.78.78 0 0 0-1-1 1 1 0 0 0-.22.15v.05a3.26 3.26 0 0 1-3.82 1c2.07 1.81 3.81.8 3.81.8m-4.88 4.88a2.56 2.56 0 0 1-1 1.23.78.78 0 0 1-1-1 .8.8 0 0 1 .16-.22 3.26 3.26 0 0 0 1-3.82c1.86 2.07.85 3.81.84 3.81M14.65 14.24a1.13 1.13 0 0 0-.62.32 1.06 1.06 0 0 0-.32.63 1.52 1.52 0 0 0 .49 1.14 11.6 11.6 0 0 0 3.8 2.24 11.7 11.7 0 0 0-2.23-3.83 1.57 1.57 0 0 0-1.12-.5m-1.4 4.42c-.46.27-1 .52-1.23 1a.78.78 0 0 0 1 1 .7.7 0 0 0 .22-.15 3.26 3.26 0 0 1 3.82-1c-2.06-1.86-3.81-.85-3.81-.85m4.88-4.88a2.6 2.6 0 0 1 1-1.23.79.79 0 0 1 1 1 .7.7 0 0 1-.16.22 3.26 3.26 0 0 0-1 3.82c-1.86-2.06-.85-3.8-.84-3.81m6.21.55H138.4v1.48H24.34z" class="cls-2"/><path d="M136.93 212.28V14.33h1.48v197.95zm-8.88 10.12H13.99v-1.48h114.06z" class="cls-2"/><path d="M15.46 24.44v197.95h-1.48V24.44zM73.2 40.82a6.4 6.4 0 0 0 2.75-2 2.59 2.59 0 0 1-.84 3.18 4 4 0 0 1-2.3.92 2.91 2.91 0 0 1-3.09-1.64 7 7 0 0 0 3.48-.46" class="cls-2"/><path d="M79.19 40.82a6.4 6.4 0 0 1-2.75-2 2.59 2.59 0 0 0 .84 3.18 4 4 0 0 0 2.3.92 2.91 2.91 0 0 0 3.09-1.64 7 7 0 0 1-3.48-.46" class="cls-2"/><path d="M82.43 37.2a8 8 0 0 1-5.73 2 6.61 6.61 0 0 1 2.2-5.32 7.83 7.83 0 0 1 5.73-2 6.63 6.63 0 0 1-2.2 5.32M70 37.2a8 8 0 0 0 5.73 2 6.61 6.61 0 0 0-2.2-5.32 7.83 7.83 0 0 0-5.73-2A6.63 6.63 0 0 0 70 37.2" class="cls-2"/><path d="M79.18 33.42a8.19 8.19 0 0 1-3 6.21 8 8 0 0 1 0-12.42 8.09 8.09 0 0 1 3 6.21" class="cls-2"/><path d="M66.58 43.72c-5-.07-7.24 4.44-6.47 8.54a8.45 8.45 0 0 0 3.19 5.29c2.13 1.55 5.9 2.23 7.14-.64 1.14-2.64-3.08-4.27-4.66-2.11m20.03-11.08c5-.07 7.24 4.44 6.47 8.54a8.45 8.45 0 0 1-3.19 5.29c-2.09 1.55-5.9 2.23-7.09-.64-1.14-2.64 3.08-4.27 4.66-2.11M50 47.24a6.37 6.37 0 0 1 1.47 5.36c-.38 2.14-1.89 3.89-3.47 5.4-4.33 4.26-8.6 10.66-7.43 17 1 5.44 6.28 9.23 11.37 10.48 8.66 2.13 18.32-2.8 18.81-12.31m-29.91-3.68s-.86-4.68-8.63-4.94" class="cls-3"/><path d="M58.13 85.91s5.65-2.26 4.24-6.65S56 77.32 56 77.32m46.35-30.08a6.37 6.37 0 0 0-1.47 5.36c.42 2.14 1.93 3.89 3.49 5.42 4.33 4.26 8.6 10.66 7.43 17-1 5.44-6.28 9.23-11.37 10.48-8.66 2.13-18.32-2.8-18.81-12.31m29.93-3.7s.86-4.68 8.63-4.94" class="cls-3"/><path d="M94.26 85.91s-5.65-2.26-4.26-6.65 6.41-1.94 6.41-1.94" class="cls-3"/><path d="M73.2 195.9a6.4 6.4 0 0 1 2.75 2 2.59 2.59 0 0 0-.84-3.21 4 4 0 0 0-2.3-.92 2.91 2.91 0 0 0-3.09 1.64 7 7 0 0 1 3.48.49" class="cls-2"/><path d="M79.19 195.9a6.4 6.4 0 0 0-2.75 2 2.59 2.59 0 0 1 .84-3.21 4 4 0 0 1 2.3-.92 2.91 2.91 0 0 1 3.09 1.64 7 7 0 0 0-3.48.49" class="cls-2"/><path d="M82.43 199.52a8 8 0 0 0-5.73-2 6.61 6.61 0 0 0 2.2 5.32 7.83 7.83 0 0 0 5.73 2 6.63 6.63 0 0 0-2.2-5.32m-12.43 0a8 8 0 0 1 5.73-2 6.61 6.61 0 0 1-2.2 5.32 7.83 7.83 0 0 1-5.73 2 6.63 6.63 0 0 1 2.2-5.32" class="cls-2"/><path d="M79.18 203.3a8.19 8.19 0 0 0-3-6.21 8 8 0 0 0 0 12.42 8.07 8.07 0 0 0 3-6.21" class="cls-2"/><path d="M66.58 193c-5 .08-7.24-4.44-6.47-8.53a8.43 8.43 0 0 1 3.19-5.29c2.13-1.55 5.9-2.24 7.14.63 1.14 2.64-3.08 4.28-4.66 2.11M85.81 193c5 .08 7.24-4.44 6.47-8.53a8.43 8.43 0 0 0-3.19-5.29c-2.13-1.55-5.9-2.24-7.14.63-1.14 2.64 3.08 4.28 4.66 2.11M50 189.48a6.37 6.37 0 0 0 1.47-5.36c-.42-2.14-1.93-3.88-3.49-5.42-4.33-4.26-8.6-10.66-7.43-17 1-5.44 6.28-9.24 11.37-10.49 8.66-2.13 18.32 2.8 18.81 12.31m-29.89 3.71s-.86 4.68-8.63 4.94" class="cls-3"/><path d="M58.13 150.82s5.65 2.25 4.24 6.64S56 159.4 56 159.4m46.35 30.08a6.37 6.37 0 0 1-1.47-5.36c.42-2.14 1.93-3.88 3.49-5.42 4.33-4.26 8.6-10.66 7.43-17-1-5.44-6.28-9.24-11.37-10.49-8.66-2.21-18.32 2.79-18.81 12.27m29.93 3.75s.86 4.68 8.63 4.94" class="cls-3"/><path d="M94.26 150.82s-5.65 2.25-4.24 6.64 6.41 1.94 6.41 1.94" class="cls-3"/><circle cx="76.19" cy="118.36" r="47.48" class="cls-2"/><circle cx="76.19" cy="118.36" r="46.3" class="cls-1"/><path d="M88.06 77.38v1.11A41.67 41.67 0 0 1 115.91 106H117a42.74 42.74 0 0 0-28.94-28.62m28.16 52.34a41.7 41.7 0 0 1-28.16 28.51v1.11a42.73 42.73 0 0 0 29.25-29.62zm-80 0h-1.14a42.73 42.73 0 0 0 29.25 29.62v-1.11a41.7 41.7 0 0 1-28.16-28.51zM35.37 106h1.11a41.67 41.67 0 0 1 27.85-27.5v-1.12A42.74 42.74 0 0 0 35.37 106m41.86-32.6a1.3 1.3 0 0 0-.81-.26 1.24 1.24 0 0 0-.8.26 1.82 1.82 0 0 0-.56 1.4c-.13 1.8 1.15 4.72 1.36 5.2.21-.48 1.49-3.4 1.37-5.2a1.9 1.9 0 0 0-.56-1.4M72.25 76a3.1 3.1 0 0 0-1.94-.16.94.94 0 0 0 0 1.75.9.9 0 0 0 .32.05h.07A3.94 3.94 0 0 1 74.84 80c-.24-3.4-2.59-4-2.59-4m8.35 0a3.08 3.08 0 0 1 1.94-.16.94.94 0 0 1 0 1.75.9.9 0 0 1-.32.05.2.2 0 0 0-.07 0A3.94 3.94 0 0 0 78 80c.24-3.4 2.59-4 2.6-4m-49.37 41.33a1.38 1.38 0 0 0 0 1.61 1.92 1.92 0 0 0 1.4.56c1.8.12 4.73-1.15 5.2-1.36-.47-.21-3.4-1.5-5.2-1.37a1.85 1.85 0 0 0-1.4.56m2.58 4.98a3.16 3.16 0 0 0-.16 1.94.94.94 0 0 0 1.75 0 .9.9 0 0 0 .06-.32v-.07a4 4 0 0 1 2.38-4.16c-3.4.3-4.03 2.6-4.03 2.61m0-8.31a3.16 3.16 0 0 1-.16-1.94.94.94 0 0 1 1.75 0 .9.9 0 0 1 .06.32v.08a4 4 0 0 0 2.38 4.16c-3.4-.3-4.03-2.62-4.03-2.62m41.35 49.32a1.38 1.38 0 0 0 1.61 0 1.82 1.82 0 0 0 .56-1.4c.13-1.8-1.15-4.72-1.36-5.19-.21.47-1.49 3.39-1.37 5.19a1.9 1.9 0 0 0 .56 1.4m4.98-2.58a3 3 0 0 0 1.94.16.94.94 0 0 0 0-1.75 1.1 1.1 0 0 0-.32-.05h-.07a3.93 3.93 0 0 1-4.16-2.37c.25 3.39 2.61 4.01 2.61 4.01m-8.35 0a3 3 0 0 1-1.94.16.94.94 0 0 1 0-1.75 1.1 1.1 0 0 1 .32-.05.2.2 0 0 0 .07 0 3.93 3.93 0 0 0 4.16-2.37c-.25 3.39-2.6 4.01-2.61 4.01m49.37-41.35a1.3 1.3 0 0 0 .26-.8 1.35 1.35 0 0 0-.26-.81 1.92 1.92 0 0 0-1.4-.56c-1.8-.12-4.73 1.15-5.2 1.36.47.21 3.4 1.5 5.2 1.37a1.85 1.85 0 0 0 1.4-.56m-2.58-4.98a3.15 3.15 0 0 0 .16-1.94.94.94 0 0 0-1.75 0 .9.9 0 0 0-.06.32v.07a3.94 3.94 0 0 1-2.38 4.16c3.45-.25 4.03-2.6 4.03-2.61m0 8.35a3.16 3.16 0 0 1 .16 1.94.94.94 0 0 1-1.75 0 .9.9 0 0 1-.06-.32v-.07a3.94 3.94 0 0 0-2.38-4.16c3.45.26 4.03 2.61 4.03 2.61" class="cls-2"/><circle cx="76.19" cy="118.36" r="37.24" class="cls-2"/><circle cx="76.19" cy="118.36" r="36.01" class="cls-1"/><path d="M79.25 94.65a9.42 9.42 0 0 1-3.06 6.87 9.26 9.26 0 0 1 0-13.74 9.18 9.18 0 0 1 3.06 6.87m9.89 2.95A12.58 12.58 0 0 0 79 100.9a5.4 5.4 0 0 1 10.15-3.3zm-25.89 0a12.58 12.58 0 0 1 10.15 3.3 5.4 5.4 0 0 0-10.15-3.3m9.89 44.47a9.45 9.45 0 0 1 3-6.87 9.24 9.24 0 0 1 0 13.74 9.2 9.2 0 0 1-3-6.87m-9.89-2.95a11.5 11.5 0 0 0 5.44-.52 11.4 11.4 0 0 0 4.71-2.78 5.4 5.4 0 0 1-10.15 3.3m25.89 0a11.5 11.5 0 0 1-5.44-.52 11.4 11.4 0 0 1-4.7-2.78 5.4 5.4 0 0 0 10.15 3.3z" class="cls-2"/><path d="M93.19 130.44a9 9 0 0 1-1.74-.19 10.4 10.4 0 0 1-4.52-2 5.5 5.5 0 0 1-1.09.39 7.4 7.4 0 0 1-1.87.24 13 13 0 0 1-1.37-.06c-1-.09-5.39-.35-6.37-.35a2.1 2.1 0 0 1-1.08-.29 1.6 1.6 0 0 1-.29.12 1.8 1.8 0 0 1-.42.08h-.25c-.87 0-1.78 0-2.67.07h-.26c-1 0-2 .11-3 .19a2.31 2.31 0 0 1-1.88-.83l-.33.42s-.15.17-.21.22a3 3 0 0 1-.28.23 1 1 0 0 1-.42.16.7.7 0 0 1-.27.05h-.27c-.85.11-1.8.25-2.74.4h-.35a2 2 0 0 1-.7-.12l-.48.24a8.5 8.5 0 0 1-2 .68 7 7 0 0 1-1.43.15 5.36 5.36 0 0 1-3.43-1.1 4.4 4.4 0 0 1-.77-.67 4.83 4.83 0 0 1-1.14-3.9 8 8 0 0 1 .12-.77 5.6 5.6 0 0 1 .26-1 1 1 0 0 1 0-.15l-.34.12c-.55.17-1.14.35-1.73.55a2.2 2.2 0 0 1-.68.1 2.17 2.17 0 0 1-1.21-.36 2.08 2.08 0 0 1-.92-1.7v-7.76a2.5 2.5 0 0 1 .06-.59 3 3 0 0 1 .11-.27s.16-.26.19-.28l1.06-1.37a2 2 0 0 1 .26-.26 1.4 1.4 0 0 1 .24-.18 3 3 0 0 1 .37-.18c1-.33 2.31-.75 3.68-1.12a6.2 6.2 0 0 1 1.9-.3 6.4 6.4 0 0 1 1.07.1l.19-.21a3 3 0 0 1 .27-.23 1.6 1.6 0 0 1 .25-.16 1.9 1.9 0 0 1 .63-.18c.76-.17 1.71-.37 2.63-.55h.41a2.26 2.26 0 0 1 1.33.44 2.08 2.08 0 0 1 .8 1.62V113l.64-.1 1.48-3.5.15-.29 1.35-1.77.12-.14-.06-.07.47-.22a2.1 2.1 0 0 1 .69-.24h.22c.89-.1 6-.37 7.07-.37a2.2 2.2 0 0 1 1.44.54l.21-.15a3 3 0 0 1 .35-.19 2.6 2.6 0 0 1 .43-.08h.25c1.13 0 3.39.15 3.39.15l3.75.32c.12 0 2.24.26 2.79.34a2.13 2.13 0 0 1 1.4.81 1.5 1.5 0 0 1 .52-.15H90c1.09.18 2 .36 2.93.55a2.1 2.1 0 0 1 1.5 1.2 5.7 5.7 0 0 1 2-.36 5.8 5.8 0 0 1 1.84.3 8.66 8.66 0 0 1 4.32 2.82s.18.25.2.28a1.9 1.9 0 0 1 .19.62v.7a1 1 0 0 1-.12.49 2 2 0 0 1 .5 1.3v3.84a1.9 1.9 0 0 1-.16.77l-.15.22-.24.29a3.47 3.47 0 0 1-1 6.81 4.6 4.6 0 0 1-1.28-.17 2 2 0 0 1-.65.1h-1.22a2 2 0 0 1-.59-.08H98a5.5 5.5 0 0 1-2.58 2.43 5.2 5.2 0 0 1-2.17.47z" class="cls-1"/><path d="M93.14 130.07a7.3 7.3 0 0 1-1.61-.18A10.2 10.2 0 0 1 87 127.8a5.8 5.8 0 0 1-1.22.47 7 7 0 0 1-1.78.23 12 12 0 0 1-1.33-.06c-1-.09-5.42-.35-6.41-.35a1.86 1.86 0 0 1-1.07-.36 1.8 1.8 0 0 1-.41.2 2 2 0 0 1-.31.06h-.25c-.88 0-1.79 0-2.68.08h-.25c-1.05.05-2 .11-3 .19a1.84 1.84 0 0 1-1.67-.88h-.33l-.46.57a1.3 1.3 0 0 1-.16.17s-.22.18-.23.19a.6.6 0 0 1-.28.12 1.3 1.3 0 0 1-.22 0h-.34c-.9.11-1.85.25-2.8.4h-.29a1.8 1.8 0 0 1-.73-.15c-.19.11-.4.21-.6.3a7.7 7.7 0 0 1-1.93.66 7 7 0 0 1-1.37.15 5 5 0 0 1-3.19-1 4.28 4.28 0 0 1-1.78-4.24 5 5 0 0 1 .12-.73 5 5 0 0 1 .24-.91c.1-.28.21-.55.33-.82a1.3 1.3 0 0 1-.34.09c-.73.22-1.6.49-2.45.77a1.9 1.9 0 0 1-.57.09 1.8 1.8 0 0 1-1-.31 1.66 1.66 0 0 1-.75-1.39v-7.76a3.4 3.4 0 0 1 0-.46s.07-.18.09-.21.14-.23.16-.26l1.06-1.35.21-.22.18-.14.32-.15c1.2-.39 2.4-.77 3.65-1.1a5.6 5.6 0 0 1 1.8-.29 5.4 5.4 0 0 1 1.2.13l.33-.36.22-.19a1 1 0 0 1 .18-.12 4 4 0 0 1 .48-.14c.83-.19 1.79-.38 2.7-.56a2 2 0 0 1 .34 0 1.8 1.8 0 0 1 1.1.37 1.69 1.69 0 0 1 .66 1.34v3.49l1.27-.2 1.56-3.64.13-.24 1.33-1.75.16-.17a1.5 1.5 0 0 1 .23-.15 2.7 2.7 0 0 1 .54-.2h.22c.93-.09 6-.36 7.07-.36a1.78 1.78 0 0 1 1.43.7l.18-.2.24-.18.26-.13a2 2 0 0 1 .31-.07h.25c1.12 0 3.37.15 3.37.15l3.74.33c.09 0 2.11.23 2.77.33a1.77 1.77 0 0 1 1.16.68l.22.33a2 2 0 0 1 .24-.18 1 1 0 0 1 .38-.12H90c1 .17 2 .34 2.86.54a1.72 1.72 0 0 1 1.35 1.33 5.3 5.3 0 0 1 2.23-.48 5.6 5.6 0 0 1 1.72.27 8.4 8.4 0 0 1 4.16 2.71l.17.24a2.3 2.3 0 0 1 .13.42v.47l-.62.21h.62a.64.64 0 0 1-.08.33s-.08.14-.13.21a1.68 1.68 0 0 1 .59 1.26v3.83a1.6 1.6 0 0 1-.1.57 1.3 1.3 0 0 1-.13.19l-.61.75a3.11 3.11 0 0 1-.38 6.21 4 4 0 0 1-1.28-.18 1.8 1.8 0 0 1-.65.12h-1.19a1.8 1.8 0 0 1-.56-.09 2 2 0 0 1-.35 0 5.1 5.1 0 0 1-2.47 2.38 4.9 4.9 0 0 1-2 .45zm-38.7-10.6" class="cls-1"/><path d="M101.63 121.76a2.8 2.8 0 0 0-.72.09 2 2 0 0 0 0-.21l.09-.06.09-.08.08-.09 1.13-1.39v-4.13a1.07 1.07 0 0 0-.77-1h-.13l.41-.52.07-.1v-.42a.2.2 0 0 0 0-.11v-.41l-.06-.1-.06-.08a7.8 7.8 0 0 0-3.88-2.51 4.89 4.89 0 0 0-4.22.56l-.12.1v-.71a1.1 1.1 0 0 0-.89-1.06c-.9-.19-1.83-.36-2.73-.52h-.77l-.1.07-.07.06v.06l-.38.48-.65-1a1.12 1.12 0 0 0-.75-.44c-.86-.13-2.73-.33-2.74-.33l-3.71-.32s-2.24-.13-3.26-.15h-.55l-.09.07-.1.08-.09.1-.58.74-.34-.62a1.16 1.16 0 0 0-1-.58c-1 0-6.1.27-7 .37h-.4l-.1.06-.08.06-.06.08-1.25 1.62-.07.1-.06.12c-.56 1.33-1.13 2.67-1.69 4l-2.33.37v-4.23a1.1 1.1 0 0 0-.42-.84 1.2 1.2 0 0 0-.94-.22c-.91.17-1.86.37-2.74.56h-.36l-.08.07-.06.06-.59.62a5.17 5.17 0 0 0-3 .07c-1.24.34-2.42.71-3.62 1.1h-.09l-.1.06h-.08l-.08.08-.06.07-1.06 1.35-.06.09v8.2a1.08 1.08 0 0 0 .48.88 1.14 1.14 0 0 0 1 .14c.86-.28 1.74-.55 2.61-.8h.1l.1-.06.08-.06.09-.07.08-.08 1-1.36.06-.07V119a7.6 7.6 0 0 0 1.29-.69l.47-.32v1.24a9.1 9.1 0 0 0-2.71 3.9 6.5 6.5 0 0 0-.22.84 5 5 0 0 0-.09.53 1 1 0 0 0 0 .14 3.71 3.71 0 0 0 1.54 3.68 4.38 4.38 0 0 0 2.8.89 6.4 6.4 0 0 0 1.24-.13 7.7 7.7 0 0 0 1.8-.62 6 6 0 0 0 .86-.47 1.12 1.12 0 0 0 .73.26h.19c.95-.15 1.92-.29 2.87-.41h.4l.08-.07.11-.09.08-.09.62-.78 1-.11.11.26a1.13 1.13 0 0 0 1.15.67c1-.08 2-.14 2.94-.19h.33c.9 0 1.82-.06 2.71-.07h.36a1 1 0 0 0 .22-.09l.09-.07.08-.06L75 127l.17-.21.12.17a1.14 1.14 0 0 0 .93.48c1 0 5.47.26 6.47.35a10 10 0 0 0 1.06.06H84a6.5 6.5 0 0 0 1.64-.21A5 5 0 0 0 87 127a9.53 9.53 0 0 0 4.62 2.24 7.5 7.5 0 0 0 1.5.17 4.2 4.2 0 0 0 1.85-.39 4.45 4.45 0 0 0 2.34-2.48 1.84 1.84 0 0 0 .81 0 1.25 1.25 0 0 0 .5.11h1.15a1.15 1.15 0 0 0 .62-.18 2.8 2.8 0 0 0 1.18.24 2.54 2.54 0 0 0 2.68-2.42 2.55 2.55 0 0 0-2.58-2.52z" class="cls-2"/><path d="M80.15 120.26s.18 1.15-1.63 2.75l-.74-.92zM48.9 114c1.18-.39 2.38-.75 3.57-1.08 2.13-.58 3.59 0 3.59 1.86s-1.49 3.2-3.64 3.8l-.87.25v2.1c-.89.26-1.77.53-2.65.82zm3.37 2.78c.68-.2 1.14-.62 1.14-1.17 0-.56-.42-.74-1.14-.54l-.73.21V117z" class="cls-2"/><path d="M57 113.87s-.33 3.37-4.64 4.68c0 0-.22-2.34-.15-2.31s4.79-2.37 4.79-2.37m-5.02 5.02.63.66-1.06 1.35-.97-.45.49-1.38zm-3.08-4.92 1.06-1.35.9.99-.23 1.69-1.23.2z" class="cls-2"/><path d="M56.63 111.67c.91-.21 1.79-.39 2.71-.56v5.72c1.27-.24 2.55-.45 3.83-.62v2.21q-3.29.47-6.54 1.19z" class="cls-2"/><path d="M66.62 110.19c.9-.09 1.81-.17 2.71-.23 1.16 2.53 2.32 5.07 3.47 7.65-1 0-2 .06-3 .13l-.44-1c-.95.06-1.91.14-2.87.24l-.42 1.09c-1 .1-2 .22-2.92.36q1.73-4.17 3.47-8.24m2.08 4.74-.7-1.82-.75 2z" class="cls-2"/><path d="m67.29 110.92-.68-.73 1.06-1.36.65.63zm6.57 5.33-1.06 1.36-1.42-.7.19-1.25zm-6.71.44-1.06 1.36-.92-.68.25-1.27 1.36-.04z" class="cls-2"/><path d="m73.54 114.82-3.1-4.92c1-.05 2.06-.07 3.1-.08l1.46 2.54 1.42-2.52c1 0 2 .07 3 .13l-3.1 4.84v2.78h-2.74z" class="cls-2"/><path d="m72.18 108.88-.78-.32-1.06 1.35 1.65 1.28 1.17-1.38zm4.49 1.96-.32-.99 1.06-1.35.64 1.2zm0 4.72.68.69-1.06 1.35-.88-.87.42-1.14zm2.99-5.56c.92.06 1.83.13 2.75.23V118c-.92-.09-1.83-.17-2.75-.22z" class="cls-2"/><path d="m80.15 110.75-.49-.75 1.06-1.35 1.18 1.38zm2.92 5.27.4.61-1.06 1.35-.91-1.12.54-1.14z" class="cls-2"/><path d="M83.37 110.32q1.27.15 2.55.33c1 1.27 1.94 2.57 2.9 3.88v-3.43c.9.16 1.8.34 2.69.53v7.75c-.8-.17-1.61-.33-2.41-.47q-1.51-2.07-3-4.06v3.57c-.9-.12-1.8-.24-2.71-.34z" class="cls-2"/><path d="m85.27 109.88-.85-.91-2.01 1.26 1.53 2.1 1.8-1.36zm4.11 1.83-.55-.6 1.06-1.36 1.29 1.62zm-2.78 4.21c.05.09.54 1.15.54 1.15l-1.06 1.35-1-1.09.51-1.56zm5.28 1.01.69 1.09-1.05 1.36-1.25-1 .7-1.52zm.37-1.25c0-2.31 1.91-3.64 4.43-2.94a6.7 6.7 0 0 1 3.32 2.17l-1.47 1.27a3.67 3.67 0 0 0-1.76-1.18 1.3 1.3 0 0 0-1.71.71 1.4 1.4 0 0 0-.09.64 2.5 2.5 0 0 0 1.91 2.36 1.66 1.66 0 0 0 .91.08V118l-1.37-.39V116c1.29.35 2.57.74 3.84 1.16v3.58a5 5 0 0 1-3.5.1c-2.48-.71-4.51-2.75-4.51-5.16" class="cls-2"/><path d="M95.15 111.42a4.89 4.89 0 0 0-2.78 3.58l1 .27 1.81-2.08zm1.85 5.26c-.07-.07-.58-.68-.58-.68l1.06-1.36 1.06 1.36a5.4 5.4 0 0 1-.35 1zm3.64 1.83.68.86-1.06 1.35-1.09-.56.44-1.29zm-.3-5.29.72.32-1.06 1.35-1.02-.04.12-1.27zm-46.76 11.66h.06c.11-2.46 3-5.67 4.24-4.64a3.25 3.25 0 0 1 3.68 1.33l-2.24 1.64a1.25 1.25 0 0 0-1.47-.62 2 2 0 0 0-1.51 2c0 1 .62 1.57 1.51 1.39a2.18 2.18 0 0 0 1.53-1.28c.75.26 1.5.53 2.24.82a5.37 5.37 0 0 1-3.83 2.8c-2.25.42-4.41-.78-4.21-3.44" class="cls-2"/><path d="M57.66 119.25s-3.58 1.91-4.08 5.63l1.06.23 2.53-3.39zm4.19.6.77.31-1.06 1.35-1.29-.53zm-.34 4.73 1.17-.46s-1.24 3.1-4 3.85l.37-1.82zm3.34-5.43c.9-.11 1.81-.2 2.72-.28 1.15 2.5 2.3 5 3.46 7.57-1 0-2 .11-3 .2l-.44-1c-1 .08-1.91.19-2.86.31l-.41 1.05q-1.45.19-2.91.42c1.14-2.77 2.29-5.53 3.44-8.27m2.08 4.7-.75-1.8-.75 2zm4.44-5.19c1.34-.06 2.68-.08 4-.07a4.1 4.1 0 0 1 3 1 2.48 2.48 0 0 1 .75 1.86 2.4 2.4 0 0 1-1.63 2.34c.64.89 1.27 1.8 1.91 2.71-1 0-2.09-.09-3.14-.11l-1.54-2.23h-.59v2.22c-.92 0-1.83 0-2.75.07zm3.94 3.59c.66 0 1.06-.27 1.06-.74 0-.5-.41-.75-1.05-.76h-1.2v1.52zm4.46-3.53q1.58.09 3.15.24c3.26.32 4.87 2.13 4.87 4.41 0 2.31-1.65 3.63-5 3.31-1-.1-2-.17-3-.23-.01-2.57-.02-5.14-.02-7.73m3.23 5.74c1.23.11 2.06-.27 2.06-1.39 0-1.11-.81-1.7-2.06-1.85h-.46v3.24z" class="cls-2"/><path d="M88.62 123.42a4.9 4.9 0 0 1-4.89 3.33l.31-2.2zm-6.7-5.09-1.08-.96-1.07 1.35.68 1.61z" class="cls-2"/><path d="m87.75 126.15 1.45-1.42a6.1 6.1 0 0 0 2.85 1.45c.48.1.69 0 .69-.19 0-.22-.25-.4-1.12-.74-1.81-.73-3.42-1.47-3.42-3.1 0-1.47 1.23-2.44 3.44-2a6.8 6.8 0 0 1 3.65 1.85L94 123.45a5.2 5.2 0 0 0-2.42-1.29c-.4-.08-.62 0-.62.21s.23.38 1.08.71c2.07.79 3.44 1.73 3.44 3.29 0 1.63-1.38 2.26-3.56 1.81a8.33 8.33 0 0 1-4.17-2.03" class="cls-2"/><path d="M96.51 125.35a3.39 3.39 0 0 1-3.15 3l.19-1.6zm-1.09-4.91.92.2-1.06 1.34-1.42.57zm-6.92 5.92-.75-.21 1.06-1.35 1.34-.04-.53 1.42zm-.31-4.26a3.5 3.5 0 0 1 2.74-3.38l-.51 2-1.8 2.1zm-22.66-1.86-.68-1.1 1.06-1.35.74.93zm5.33 4.22 1.23.62-1.06 1.35-1.45-.46.25-1.69zm-5.76.35.28.85-1.06 1.35-1.03-.56.74-1.64zm6.79-5.38-.52-.77 1.06-1.35.92.64-.72 2.02zm7.07 4.97 1.5.7-1.06 1.36-2.12-.75.31-1.58zm-4.28-.29.5.87-1.06 1.35a4.3 4.3 0 0 1-1-.45c0-.09.5-1.93.5-1.93zM58.32 111.2a8 8 0 0 1-.62-.7l-1.06 1.17 1.36 1.24zm5.4 5.17.5.69-1.05 1.35-1.14-.72.15-.96zM51.8 114.7l2.71-.49-.4 1.49-2.78.87z" class="cls-2"/><path d="M50 112.62q1.77-.59 3.57-1.08c2.13-.59 3.59 0 3.59 1.86 0 1.85-1.49 3.19-3.64 3.79l-.87.25v2.11c-.89.25-1.77.52-2.65.81zm3.37 2.77c.68-.19 1.14-.62 1.14-1.16 0-.57-.42-.75-1.14-.55l-.73.21v1.73z" class="cls-1"/><path d="M49.87 120.49v-7.94h.06c1.17-.38 2.38-.75 3.58-1.08a3.56 3.56 0 0 1 2.93.19 2 2 0 0 1 .78 1.74c0 1.81-1.35 3.23-3.72 3.88l-.8.23v2.11h-.07c-.88.25-1.77.53-2.65.82zm.18-7.81v7.56c.81-.27 1.64-.52 2.48-.76v-2.11h.07l.86-.25c2.28-.62 3.58-2 3.58-3.71a1.86 1.86 0 0 0-.7-1.61 3.33 3.33 0 0 0-2.77-.15c-1.2.35-2.36.65-3.52 1.03m2.48 3v-1.88h.07l.73-.22a1.18 1.18 0 0 1 1 0 .67.67 0 0 1 .26.58c0 .57-.45 1-1.24 1.24l-.72.21zm.18-1.78v1.54l.62-.17c.68-.18 1.08-.62 1.08-1.07a.49.49 0 0 0-.18-.44 1 1 0 0 0-.83 0zm4.98-3.41c.9-.21 1.8-.39 2.71-.56v5.53c1.27-.24 2.55-.44 3.83-.61v2.21q-3.29.47-6.54 1.19z" class="cls-1"/><path d="M57.6 118.36v-7.94h.07c.9-.19 1.81-.39 2.71-.55h.11v5.53c1.24-.23 2.48-.43 3.72-.62h.1v2.4h-.08c-2.18.31-4.38.71-6.53 1.19zm.19-7.79v7.56c2.08-.46 4.22-.85 6.34-1.15v-2c-1.24.18-2.47.39-3.71.62h-.11V110c-.85.21-1.69.38-2.52.57" class="cls-1"/><path d="M67.67 108.83c.91-.09 1.81-.16 2.72-.23 1.16 2.53 2.31 5.08 3.47 7.65-1 0-2 .07-3 .13l-.44-1c-1 .06-1.91.14-2.87.24l-.42 1.08c-1 .1-2 .22-2.92.36q1.73-4.15 3.46-8.23m2.09 4.75-.76-1.82-.75 1.95z" class="cls-1"/><path d="m64.08 117.17.06-.15c1.13-2.71 2.28-5.48 3.45-8.22.91-.09 1.82-.17 2.73-.23h.07v.06c1.16 2.54 2.32 5.12 3.46 7.65l.06.12h-.14c-1 0-2 .07-3 .13h-.06l-.44-1c-.91.07-1.85.14-2.74.23l-.42 1.09h-.06c-1 .1-2 .22-2.91.36zm3.66-8.25c-1.14 2.67-2.27 5.37-3.37 8 .9-.12 1.81-.24 2.7-.34l.42-1.08h.08c1-.1 1.92-.18 2.88-.24h.07l.43 1c.92-.06 1.86-.1 2.79-.13-1.11-2.48-2.25-5-3.39-7.47-.87 0-1.75.1-2.61.19zm.38 4.89v-.14l.75-2 .09-.21.09.21.75 1.82v.12h-.12l-1.5.12zM69 112l-.62 1.6 1.24-.11zm5.6 1.48-3.1-4.92c1 0 2.06-.07 3.1-.08L76 111l1.42-2.52c1 0 2 .07 3 .13l-3.1 4.84v2.78h-2.75z" class="cls-1"/><path d="M77.45 116.34h-2.94v-2.81c-1-1.63-2.06-3.28-3.1-4.9l-.08-.13h.16c1 0 2.06-.07 3.09-.08h.06l1.33 2.4 1.34-2.38h.06c1 0 2 .07 3 .13h.16l-.08.13c-1 1.59-2.08 3.21-3.1 4.81zm-2.17-.2h2v-2.71l3-4.72c-.94 0-1.89-.09-2.83-.12l-1.39 2.48-.08.15-.08-.15-1.39-2.48c-1 0-1.91 0-2.86.08 1 1.58 2 3.19 3 4.79v2.68zm5.44-7.51c.92.06 1.83.13 2.74.22v7.75c-.91-.09-1.82-.16-2.74-.22z" class="cls-1"/><path d="M83.56 116.72h-.1c-.91-.09-1.86-.16-2.74-.22h-.09v-8h.1c.91.07 1.86.14 2.75.23h.08zm-2.74-.41c.85.06 1.71.13 2.56.21V109c-.85-.08-1.71-.16-2.56-.21zm3.61-7.31c.86.1 1.71.21 2.56.33 1 1.27 1.93 2.57 2.9 3.88v-3.42c.9.15 1.79.33 2.68.52V118c-.8-.17-1.6-.33-2.41-.47q-1.5-2.07-3-4.06v3.57c-.9-.12-1.81-.24-2.72-.34z" class="cls-1"/><path d="M92.67 118.13h-.12l-2.4-.47c-.94-1.28-1.9-2.57-2.86-3.84v3.41h-.1c-.9-.13-1.81-.24-2.71-.34h-.08v-8h.11c.85.09 1.71.19 2.56.32.91 1.2 1.86 2.43 2.73 3.65v-3.24h.11c.9.16 1.8.33 2.69.52h.07zm-2.48-.66 2.26.44v-7.57l-2.45-.48v3.6l-.16-.23c-1-1.29-1.92-2.58-2.88-3.85-.8-.11-1.61-.22-2.41-.31v7.58c.84.09 1.69.2 2.52.31v-3.74l.17.22c1 1.32 2 2.68 3 4zm3.12-3.14c0-2.31 1.91-3.64 4.43-2.94a6.7 6.7 0 0 1 3.32 2.17l-1.48 1.26a3.74 3.74 0 0 0-1.76-1.19 1.32 1.32 0 0 0-1.71.71 1.4 1.4 0 0 0-.11.66 2.52 2.52 0 0 0 1.91 2.36 1.76 1.76 0 0 0 .91.09v-.78l-1.37-.39v-1.68c1.29.36 2.57.74 3.85 1.16v3.59a5.1 5.1 0 0 1-3.51.1c-2.45-.67-4.48-2.72-4.48-5.12" class="cls-1"/><path d="M99.58 119.82a6.4 6.4 0 0 1-1.79-.26c-2.69-.76-4.57-2.91-4.57-5.23a3.06 3.06 0 0 1 1.24-2.62 3.81 3.81 0 0 1 3.3-.41 6.8 6.8 0 0 1 3.37 2.21l.06.07h-.07l-1.48 1.29-.08.06-.06-.07a3.53 3.53 0 0 0-1.71-1.15 1.36 1.36 0 0 0-1.18.13 1.31 1.31 0 0 0-.49 1.12 2.42 2.42 0 0 0 1.88 2.32 1.8 1.8 0 0 0 .8.1v-.62l-1.3-.36h-.1v-1.86h.11c1.29.36 2.59.75 3.86 1.16h.06v3.72h-.05a4.15 4.15 0 0 1-1.8.4m-3.14-8.55a3.2 3.2 0 0 0-1.86.56 2.92 2.92 0 0 0-1.16 2.48c0 2.24 1.82 4.33 4.44 5.06a5.1 5.1 0 0 0 3.38-.08v-3.47c-1.2-.39-2.43-.76-3.66-1.1v1.48l1.3.37H99v.91h-.07a2 2 0 0 1-1-.09 2.61 2.61 0 0 1-2-2.45 1.47 1.47 0 0 1 .57-1.23 1.55 1.55 0 0 1 1.34-.17 3.74 3.74 0 0 1 1.75 1.14l1.34-1.16a6.46 6.46 0 0 0-3.22-2.07 4.7 4.7 0 0 0-1.29-.18zm-41.78 12.62a5.41 5.41 0 0 1 4.28-5 3.26 3.26 0 0 1 3.68 1.34c-.75.53-1.49 1.08-2.24 1.64a1.23 1.23 0 0 0-1.47-.62 2 2 0 0 0-1.51 2c0 1 .62 1.58 1.51 1.39a2.15 2.15 0 0 0 1.53-1.28c.75.26 1.5.54 2.24.82a5.34 5.34 0 0 1-3.84 2.8c-2.24.4-4.18-.69-4.18-3.09" class="cls-1"/><path d="M57.84 127.12a3.48 3.48 0 0 1-2.13-.67 3.09 3.09 0 0 1-1.14-2.56 5.48 5.48 0 0 1 4.33-5.14 3.38 3.38 0 0 1 3.78 1.38v.07h-.07l-2.24 1.64-.09.06v-.08a1.15 1.15 0 0 0-1.37-.62 2 2 0 0 0-1.44 1.94 1.37 1.37 0 0 0 .46 1.12 1.13 1.13 0 0 0 .94.18 2.06 2.06 0 0 0 1.46-1.24v-.08h.08c.74.26 1.5.54 2.24.82h.1l-.05.08a5.48 5.48 0 0 1-3.9 2.85 4.7 4.7 0 0 1-.96.25m2.09-8.32a4.5 4.5 0 0 0-1 .11 5.3 5.3 0 0 0-4.2 5 2.94 2.94 0 0 0 1.07 2.43 3.64 3.64 0 0 0 3 .52 5.21 5.21 0 0 0 3.71-2.66c-.68-.26-1.38-.51-2.06-.75a2.26 2.26 0 0 1-1.55 1.24 1.3 1.3 0 0 1-1.1-.21 1.55 1.55 0 0 1-.53-1.24 2.11 2.11 0 0 1 1.59-2.11 1.32 1.32 0 0 1 1.51.62l2.1-1.54a3 3 0 0 0-2.56-1.36zm5.98-1.01c.9-.12 1.81-.21 2.72-.29 1.15 2.5 2.3 5 3.46 7.57-1 .05-2 .11-3 .2l-.43-1c-1 .09-1.91.19-2.87.31l-.42 1.09-2.91.42q1.72-4.19 3.45-8.3m2.08 4.7-.75-1.81-.75 2z" class="cls-1"/><path d="m62.32 126.2.06-.15c1.13-2.75 2.28-5.55 3.44-8.3h.06c.9-.11 1.81-.2 2.72-.29h.07v.06l3.46 7.48.05.12h-.13c-1 0-2 .11-3 .19H69l-.43-1c-.91.08-1.86.18-2.75.29l-.42 1.09h-.05c-1 .13-1.95.27-2.91.42zm3.68-8.33a925 925 0 0 0-3.36 8.1q1.35-.23 2.7-.39l.42-1.1h.06c.95-.12 1.92-.22 2.87-.3h.07l.43 1c.92-.07 1.86-.14 2.78-.18-1.11-2.45-2.25-5-3.38-7.39-.85.06-1.73.16-2.58.26zm.38 4.88.05-.14.75-2 .08-.23.1.22.75 1.81v.11H68l-1.5.16zm.89-1.82-.62 1.61 1.24-.13zm5.16-3.63c1.34-.06 2.68-.09 4-.08a4 4 0 0 1 3 1 2.4 2.4 0 0 1 .75 1.85 2.4 2.4 0 0 1-1.62 2.31c.64.89 1.28 1.8 1.92 2.71-1 0-2.1-.09-3.14-.11l-1.56-2.22h-.59v2.22c-.91 0-1.83 0-2.75.07zm3.94 3.61c.65 0 1.06-.27 1.06-.75 0-.49-.41-.75-1.05-.75h-1.2v1.52z" class="cls-1"/><path d="M80.64 125.2h-.18c-1-.06-2.1-.09-3.14-.11l-1.55-2.19h-.45v2.22h-.09c-.91 0-1.86 0-2.75.07h-.1v-7.94h.09c1.34 0 2.69-.08 4-.07a4.22 4.22 0 0 1 3 1 2.53 2.53 0 0 1 .78 1.93 2.48 2.48 0 0 1-1.58 2.34l1.86 2.55zm-3.27-.29c1 0 1.95 0 2.91.1-.62-.86-1.24-1.72-1.82-2.57l-.06-.08h.1a2.28 2.28 0 0 0 1.57-2.22 2.36 2.36 0 0 0-.72-1.81 4.07 4.07 0 0 0-2.9-.92c-1.3 0-2.63 0-3.93.07V125c.86 0 1.72-.06 2.57-.07v-2.26h.73zM75.09 121v-1.69h1.29c.71 0 1.14.31 1.14.84a.73.73 0 0 1-.22.54 1.38 1.38 0 0 1-.93.29h-1.28zm.18-1.51v1.33h1.1a1.12 1.12 0 0 0 .79-.23.57.57 0 0 0 .17-.42c0-.58-.62-.67-1-.67zm5.56-2.12q1.58.09 3.15.24c3.26.32 4.87 2.13 4.87 4.41 0 2.31-1.65 3.63-4.95 3.31-1-.1-2-.17-3.05-.23zm3.2 5.74c1.24.11 2.07-.27 2.07-1.39 0-1.11-.81-1.7-2.07-1.85l-.45-.05v3.24z" class="cls-1"/><path d="M84.84 125.49h-1c-1-.09-2-.17-3-.23h-.08v-7.96h.1c1 .06 2.1.14 3.14.24 3.1.3 5 2 5 4.5a3.14 3.14 0 0 1-1 2.52 4.55 4.55 0 0 1-3.16.93m-3.91-.49c1 0 2 .13 3 .22a5.1 5.1 0 0 0 3.89-.83 3 3 0 0 0 1-2.39c0-2.41-1.79-4-4.79-4.33q-1.5-.15-3-.24zm3.53-1.82h-1.01v-3.41h.57c1.38.13 2.14.81 2.14 1.91a1.36 1.36 0 0 1-.44 1.11 1.94 1.94 0 0 1-1.26.43zm-.78-.24h.37a2.12 2.12 0 0 0 1.58-.32 1.22 1.22 0 0 0 .37-1c0-1.28-1.07-1.65-2-1.74h-.35z" class="cls-1"/><path d="m88.81 124.79 1.45-1.41a6.2 6.2 0 0 0 2.85 1.44c.48.1.69 0 .69-.18 0-.23-.25-.41-1.12-.75-1.82-.72-3.43-1.47-3.43-3.09 0-1.47 1.24-2.44 3.45-2a6.75 6.75 0 0 1 3.64 1.86L95 122.1a5.14 5.14 0 0 0-2.42-1.29c-.4-.08-.62 0-.62.2 0 .21.22.39 1.08.71 2.07.8 3.44 1.74 3.44 3.29 0 1.63-1.39 2.26-3.56 1.82a8.35 8.35 0 0 1-4.11-2.04" class="cls-1"/><path d="M94.23 127.07a6 6 0 0 1-1.28-.14 8.3 8.3 0 0 1-4.22-2.08l-.06-.06.06-.06 1.46-1.41.06-.07.07.07a6 6 0 0 0 2.79 1.42c.37.07.5 0 .54 0a.12.12 0 0 0 0-.1c0-.17-.29-.35-1.07-.66-1.9-.76-3.48-1.52-3.48-3.19a2.07 2.07 0 0 1 .77-1.68 3.4 3.4 0 0 1 2.79-.4 6.8 6.8 0 0 1 3.72 1.91v.12l-1.31 1.44-.06.07-.07-.07a5.25 5.25 0 0 0-2.38-1.24.64.64 0 0 0-.43 0 .11.11 0 0 0 0 .1c0 .15.16.31 1 .62 1.74.67 3.5 1.59 3.5 3.38a1.84 1.84 0 0 1-.63 1.56 2.7 2.7 0 0 1-1.77.47m-5.29-2.28a8.3 8.3 0 0 0 4 2 3.56 3.56 0 0 0 2.83-.3 1.73 1.73 0 0 0 .62-1.42c0-1.34-1-2.3-3.39-3.21-.87-.33-1.13-.52-1.13-.8a.26.26 0 0 1 .11-.23.75.75 0 0 1 .62-.06A5.2 5.2 0 0 1 95 122l1.19-1.3a6.7 6.7 0 0 0-3.53-1.8 3.2 3.2 0 0 0-2.63.37 1.83 1.83 0 0 0-.7 1.53c0 1.56 1.52 2.29 3.36 3 .91.36 1.18.55 1.18.83a.3.3 0 0 1-.11.23.9.9 0 0 1-.7 0 6.2 6.2 0 0 1-2.82-1.41zm9.74-1.88h1.14v2.63h-1.14zm1.41 1.32a1.56 1.56 0 0 1 3.1 0 1.56 1.56 0 0 1-3.1 0m2 0a.44.44 0 0 0-.45-.46.44.44 0 0 0-.44.44.45.45 0 0 0 .45.46.45.45 0 0 0 .45-.44z" class="cls-1"/><ellipse cx="97.74" cy="124.87" class="cls-1" rx=".64" ry=".61"/><ellipse cx="99.17" cy="122.1" class="cls-1" rx=".64" ry=".61"/><path d="M29.58 27.31a8.84 8.84 0 0 1 1.51 6.86 8.65 8.65 0 0 1-7.63-10.33 8.56 8.56 0 0 1 6.12 3.47m97.81 3.39a8.82 8.82 0 0 0 1.51-6.86 8.65 8.65 0 0 0-7.63 10.33 8.56 8.56 0 0 0 6.12-3.47m-4.58 178.71a8.82 8.82 0 0 1-1.51-6.86 8.65 8.65 0 0 1 7.63 10.33 8.56 8.56 0 0 1-6.12-3.47M25 206a8.8 8.8 0 0 0-1.51 6.86 8.65 8.65 0 0 0 7.63-10.33A8.56 8.56 0 0 0 25 206M23.77 78.96h1.48v78.81h-1.48zm103.37 0h1.48v78.81h-1.48z" class="cls-2"/></g></g></svg>