<svg xmlns="http://www.w3.org/2000/svg" viewBox="0 0 17.764 29.61"><defs><style>.ea51a055-5831-4e20-9fd3-43c1338fde08{fill:#333}.ba1a5854-4607-42d2-b515-6cfe068101a1{fill:#dae0df}.fb93bfb7-31a8-4812-9147-e09d8f92bd97{fill:#fff}.e462de01-ebef-4f14-a407-e2f990c66330{fill:#b2bfbf}.f6168ed8-8441-418e-9607-27a5de47a4d3{fill:#9aa5a5}</style></defs><g id="e4ff8d7d-66c7-4a33-9d29-99914d98a839" data-name="Layer 2"><g id="ad1d4baa-3069-42ac-8234-7df390a1fd66" data-name="Layer 5"><path d="M8.88 29.235a13.4 13.4 0 0 1-5.734-1.179 6 6 0 0 1-1.068-.624 4 4 0 0 1-.279-.208A3.3 3.3 0 0 1 .375 24.69l.031-.42c.002-.02.015-.08.02-.1l.122-1.419a3.3 3.3 0 0 1-.17-1.03 3 3 0 0 1 .014-.284c.099-1.944 1.961-4.091 3.323-5.66A10.4 10.4 0 0 0 5.06 14.04a7.4 7.4 0 0 0 .182-3.083l-.008-.007a6 6 0 0 1-.539-.47A5.92 5.92 0 1 1 14.8 6.248a5.91 5.91 0 0 1-2.152 4.614q-.055.046-.116.09-.012.205-.022.416a7.2 7.2 0 0 0 .207 2.67 10.2 10.2 0 0 0 1.336 1.72c1.364 1.575 3.233 3.73 3.327 5.706a2 2 0 0 1 .01.258 3 3 0 0 1-.101.754 5 5 0 0 1-.075.284l.17 1.895c.002 1.687-1.566 3.152-4.199 3.961a.4.4 0 0 1-.076.033 15 15 0 0 1-4.228.586z" class="ea51a055-5831-4e20-9fd3-43c1338fde08"/><path d="M8.882.75a5.543 5.543 0 0 1 5.542 5.501l.003.044a5.53 5.53 0 0 1-2.018 4.278c-.077.063-.16.12-.24.18q-.021.292-.035.598a7.6 7.6 0 0 0 .24 2.84c.56 1.27 4.5 4.54 4.63 7.29a2 2 0 0 1 .01.24 2.7 2.7 0 0 1-.091.665 3 3 0 0 1-.092.33l.139 1.544.04.43c0 1.53-1.61 2.87-4.01 3.59v.01a14.6 14.6 0 0 1-4.12.57 13 13 0 0 1-5.57-1.14 6 6 0 0 1-1.01-.59c-.09-.06-.18-.13-.27-.2a2.95 2.95 0 0 1-1.28-2.24l.03-.39.01-.04.138-1.555a2.9 2.9 0 0 1-.175-.983l.002-.017a2 2 0 0 1 .009-.223c.14-2.75 4.08-6.01 4.64-7.29a9.2 9.2 0 0 0 .202-3.431q-.073-.052-.144-.107A5.54 5.54 0 0 1 8.882.75m0-.75a6.293 6.293 0 0 0-4.45 10.745 6 6 0 0 0 .447.402 6.8 6.8 0 0 1-.16 2.739 10.7 10.7 0 0 1-1.289 1.646C2.04 17.135.136 19.33.016 21.42a3 3 0 0 0-.011.252l-.002.05a3.6 3.6 0 0 0 .164 1.072l-.12 1.356a1 1 0 0 0-.015.093l-.03.39Q0 24.66 0 24.69a3.66 3.66 0 0 0 1.56 2.825q.17.133.323.239a6.5 6.5 0 0 0 1.114.647A13.8 13.8 0 0 0 8.88 29.61a15.4 15.4 0 0 0 4.334-.601 1 1 0 0 0 .116-.046c2.777-.862 4.43-2.454 4.43-4.273q0-.035-.003-.07l-.04-.43-.125-1.392a4 4 0 0 0 .057-.224 3.5 3.5 0 0 0 .115-.852 3 3 0 0 0-.012-.302c-.114-2.097-2.023-4.299-3.418-5.908a11 11 0 0 1-1.274-1.623 6.3 6.3 0 0 1-.177-2.504q.005-.122.012-.241a6.28 6.28 0 0 0 2.281-4.85l-.003-.08A6.303 6.303 0 0 0 8.882 0" class="ea51a055-5831-4e20-9fd3-43c1338fde08"/><path d="M17.01 24.69c0 1.53-1.61 2.87-4.01 3.59v.01a14.6 14.6 0 0 1-4.12.57 13 13 0 0 1-5.57-1.14 6 6 0 0 1-1.01-.59c-.09-.06-.18-.13-.27-.2a2.95 2.95 0 0 1-1.28-2.24l.03-.39.01-.04a2.6 2.6 0 0 1 .42-.96 3 3 0 0 1 .27-.34 5 5 0 0 1 .93-.8 8 8 0 0 1 1.03-.57 13.3 13.3 0 0 1 5.44-1.07 13.3 13.3 0 0 1 5.44 1.07h.01c.17.08.33.16.49.25a5 5 0 0 1 .53.32 4.3 4.3 0 0 1 1.2 1.15 2.6 2.6 0 0 1 .42.95z" class="ba1a5854-4607-42d2-b515-6cfe068101a1"/><path d="m5.86 21.78-3.69 2.1-1.42.81.03-.39.01-.04.19-2.15.06-.7 2.4.18zm11.15 2.91-1.07-.61-1.25-.71-1.24-.71-1.55-.88 2.42-.19h.01l.48-.03 1.91-.15.03.38.08.91.14 1.56z" class="ba1a5854-4607-42d2-b515-6cfe068101a1"/><path d="M3.61 24.76a12 12 0 0 0-.3 2.96 6 6 0 0 1-1.01-.59 11.8 11.8 0 0 1 .26-3.112z" class="fb93bfb7-31a8-4812-9147-e09d8f92bd97"/><path d="m16.97 24.26.04.43c0 1.53-1.61 2.87-4.01 3.59.58-2.45.19-2.51.19-2.51l.01-.01a4.86 4.86 0 0 0 1.49-2.39 4.3 4.3 0 0 0 .14-1.07 1.8 1.8 0 0 0-.01-.46 1.3 1.3 0 0 0-.01-.28 9.06 9.06 0 0 0-1.44-3.81 10.4 10.4 0 0 0-1.78-2.19c-1.11-.92-1.11-3.87-1.11-3.87l.68-.2.74-.09.23-.05a7.6 7.6 0 0 0 .24 2.84c.56 1.27 4.5 4.54 4.63 7.29a2 2 0 0 1 .01.24 2.7 2.7 0 0 1-.18.98z" class="e462de01-ebef-4f14-a407-e2f990c66330"/><path d="M17.014 21.721a2.7 2.7 0 0 1-.18.98 3 3 0 0 1-.28.61 4.4 4.4 0 0 1-.61.77 7.2 7.2 0 0 1-2.74 1.68l-.01.01a12.6 12.6 0 0 1-4.31.72c-3.02 0-5.66-.97-7.06-2.41a4 4 0 0 1-.61-.78 2.7 2.7 0 0 1-.28-.6 2.7 2.7 0 0 1-.18-.98 2 2 0 0 1 .01-.24c.14-2.75 4.08-6.01 4.64-7.29.58-1.3 0-5.43 0-5.43l.19-1.53h.78l1.84.78.67.75.67-.75 1.85-.78h.77l.17 1.32.03.21s-.18 1.25-.24 2.59a7.6 7.6 0 0 0 .24 2.84c.56 1.27 4.5 4.54 4.63 7.29a2 2 0 0 1 .01.24" class="ba1a5854-4607-42d2-b515-6cfe068101a1"/><path d="M17.014 21.721a2.7 2.7 0 0 1-.18.98 3 3 0 0 1-.28.61 4.4 4.4 0 0 1-.61.77 7.2 7.2 0 0 1-2.74 1.68 4.86 4.86 0 0 0 1.49-2.39 4.3 4.3 0 0 0 .14-1.07 1.8 1.8 0 0 0-.01-.46 1.3 1.3 0 0 0-.01-.28 9.06 9.06 0 0 0-1.44-3.81 10.4 10.4 0 0 0-1.78-2.19c-1.11-.92-1.11-5.26-1.11-5.26l1.42-1.63.44-.12.03.21s-.18 1.25-.24 2.59a7.6 7.6 0 0 0 .24 2.84c.56 1.27 4.5 4.54 4.63 7.29a2 2 0 0 1 .01.24" class="e462de01-ebef-4f14-a407-e2f990c66330"/><path d="M8.882 25.37c-4.165 0-7.594-1.84-8.068-4.21a3 3 0 0 0-.061.562c0 2.634 3.64 4.77 8.129 4.77s8.129-2.136 8.129-4.77a3 3 0 0 0-.061-.562c-.474 2.37-3.902 4.21-8.068 4.21" class="e462de01-ebef-4f14-a407-e2f990c66330"/><path d="M16.83 22.7a2.7 2.7 0 0 0 .18-.98v-.008a3 3 0 0 0-.06-.551 4.6 4.6 0 0 1-2.514 2.915 5 5 0 0 1-1.234 1.681l.029-.01q.381-.14.732-.305l.06-.026q.353-.17.672-.363.082-.052.16-.104.244-.154.463-.322l.129-.1a5 5 0 0 0 .493-.447c.1-.1.188-.204.275-.31l.08-.098c.059-.075.11-.153.162-.23q.065-.098.122-.195a3 3 0 0 0 .251-.547" class="f6168ed8-8441-418e-9607-27a5de47a4d3"/><circle cx="8.882" cy="6.295" r="5.545" class="ba1a5854-4607-42d2-b515-6cfe068101a1"/><path d="M8.882 9.803A5.54 5.54 0 0 1 3.44 5.276a5.545 5.545 0 1 0 10.884 0 5.54 5.54 0 0 1-5.442 4.527" class="e462de01-ebef-4f14-a407-e2f990c66330"/><ellipse cx="7.155" cy="3.73" class="fb93bfb7-31a8-4812-9147-e09d8f92bd97" rx="2.189" ry="1.485" transform="rotate(-15.478 7.155 3.73)"/><path d="M14.408 5.958a5.77 5.77 0 0 1-5.912 5.204 6.14 6.14 0 0 1-3.95-1.417 5.542 5.542 0 0 0 9.88-3.45c0-.114-.01-.225-.018-.337" class="f6168ed8-8441-418e-9607-27a5de47a4d3"/><path fill="#e4efed" d="M12.955 19.163c.335.512-1.365 2.042-3.976 2.04-2.614.002-4.31-1.528-3.976-2.04.309-.544 2.028-.169 3.976-.197 1.946.028 3.668-.347 3.976.197"/></g></g></svg>